{"title":"Wildwechsel AKA Jail Bait (Fassbinder - 1973)","uid":9910645,"size":1522641117,"categoryP":"video","categoryS":"movies","magnet":"?xt=urn:btih:5217999c52ad6211af666878c39162cc60eb43ba&amp;dn=Wildwechsel+AKA+Jail+Bait+%28Fassbinder+-+1973%29&amp;tr=udp%3A%2F%2Ftracker.openbittorrent.com%3A80&amp;tr=udp%3A%2F%2Fopen.demonii.com%3A1337&amp;tr=udp%3A%2F%2Ftracker.coppersurfer.tk%3A6969&amp;tr=udp%3A%2F%2Fexodus.desync.com%3A6969","seeders":8,"leechers":1,"uploader":"noriegaRJ","files":1,"time":1396891115,"description":"Title: Wildwechsel AKA Jail Bait - a film by Rainer Werner Fassbinder\n\n\nIMDB Link:                             &lt;a href=&quot;\nhttp://www.imdb.com/title/tt0069502/&quot; rel=&quot;nofollow&quot; target=&quot;_NEW&quot;&gt;\nhttp://www.imdb.com/title/tt0069502/&lt;/a&gt;\n\n\nPlot: Based on Franz Xaver Kroetz's play, which is in turn based on a true story, this film by Rainer Werner Fassbinder tells the story of a very young girl who, after persuading a local boy to become her lover, induces the lad to kill her father, whose incestuous sexual attentions to her have grown unbearable. The site they choose for this deed, which gives its name to the film, is a wild-game crossing.\n\n\nGeneral\nComplete name                            : D:Meus documentosFilmesWildwechsel AKA Jail Bait (1973).mkv\nFormat                                   : Matroska\nFormat version                           : Version 4 / Version 2\nFile size                                : 1.42 GiB\nDuration                                 : 1h 32mn\nOverall bit rate                         : 2 186 Kbps\nWriting application                      : Lavf55.19.104\nWriting library                          : Lavf55.19.104\n\nVideo\nID                                       : 1\nFormat                                   : AVC\nFormat/Info                              : Advanced Video Codec\nFormat profile                           : &lt;a class=&quot;__cf_email__&quot; href=&quot;/cdn-cgi/l/email-protection&quot; data-cfemail=&quot;480a293b2d2421262d080479667b&quot;&gt;[email&amp;#160;protected]&lt;/a&gt;&lt;script cf-hash='f9e31' type=&quot;text/javascript&quot;&gt;\n/* &lt;![CDATA[ */!function(){try{var t=&quot;currentScript&quot;in document?document.currentScript:function(){for(var t=document.getElementsByTagName(&quot;script&quot;),e=t.length;e--;)if(t[e].getAttribute(&quot;cf-hash&quot;))return t[e]}();if(t&amp;&amp;t.previousSibling){var e,r,n,i,c=t.previousSibling,a=c.getAttribute(&quot;data-cfemail&quot;);if(a){for(e=&quot;&quot;,r=parseInt(a.substr(0,2),16),n=2;a.length-n;n+=2)i=parseInt(a.substr(n,2),16)^r,e+=String.fromCharCode(i);e=document.createTextNode(e),c.parentNode.replaceChild(e,c)}}}catch(u){}}();/* ]]&gt; */&lt;/script&gt;\nFormat settings, CABAC                   : No\nFormat settings, ReFrames                : 2 frames\nCodec ID                                 : V_MPEG4/ISO/AVC\nDuration                                 : 1h 32mn\nBit rate                                 : 2 000 Kbps\nWidth                                    : 720 pixels\nHeight                                   : 576 pixels\nDisplay aspect ratio                     : 5:4\nFrame rate mode                          : Constant\nFrame rate                               : 25.000 fps\nStandard                                 : PAL\nColor space                              : YUV\nChroma subsampling                       : 4:2:0\nBit depth                                : 8 bits\nScan type                                : Progressive\nBits/(Pixel*Frame)                       : 0.193\nStream size                              : 1.27 GiB (89%)\nDefault                                  : Yes\nForced                                   : No\nHANDLER_NAME                             : VideoHandler\n\nAudio\nID                                       : 2\nFormat                                   : AC-3\nFormat/Info                              : Audio Coding 3\nMode extension                           : CM (complete main)\nFormat settings, Endianness              : Big\nCodec ID                                 : A_AC3\nDuration                                 : 1h 32mn\nBit rate mode                            : Constant\nBit rate                                 : 192 Kbps\nChannel count                            : 2 channels\nChannel positions                        : Front: L R\nSampling rate                            : 48.0 KHz\nBit depth                                : 16 bits\nCompression mode                         : Lossy\nDelay relative to video                  : -5ms\nStream size                              : 128 MiB (9%)\nDefault                                  : Yes\nForced                                   : No\nEncoded date                             : UTC 2013-12-09 04:58:43\nHANDLER_NAME                             : IsoMedia File Produced by Google, 5-11-2011\n\n\n\nThanks to those helping me seed. Leechers remember, the community depends on you. If nobody shares, the freebies go away. Remember, the only reason you can download this free movie is because others are generous enough to keep sharing it with you. If nobody shares, everybody loses, so even if its for an extra hour or two after you get it, remember, others want to see it too, and they can't without you.\n\n\nSEE MY OTHERS UPLOADS:                                                     &lt;a href=&quot;\nhttp://thepiratebay.se/user/noriegaRJ&quot; rel=&quot;nofollow&quot; target=&quot;_NEW&quot;&gt;\nhttp://thepiratebay.se/user/noriegaRJ&lt;/a&gt;\n\nAND SEE THIS ANOTHERS UPLOADS FROM &quot;HORiZON-ArtSubs&quot;:     &lt;a href=&quot;\nhttp://thepiratebay.se/user/artsubs&quot; rel=&quot;nofollow&quot; target=&quot;_NEW&quot;&gt;\nhttp://thepiratebay.se/user/artsubs&lt;/a&gt;     &lt;a href=&quot;\nhttp://thepiratebay.se/user/lletaif&quot; rel=&quot;nofollow&quot; target=&quot;_NEW&quot;&gt;\nhttp://thepiratebay.se/user/lletaif&lt;/a&gt;\t\t\t\t\t","torrent":{"xt":"urn:btih:5217999c52ad6211af666878c39162cc60eb43ba","amp;dn":"Wildwechsel+AKA+Jail+Bait+%28Fassbinder+-+1973%29","amp;tr":["udp%3A%2F%2Ftracker.openbittorrent.com%3A80","udp%3A%2F%2Fopen.demonii.com%3A1337","udp%3A%2F%2Ftracker.coppersurfer.tk%3A6969","udp%3A%2F%2Fexodus.desync.com%3A6969"],"infoHash":"5217999c52ad6211af666878c39162cc60eb43ba","infoHashBuffer":{"type":"Buffer","data":[82,23,153,156,82,173,98,17,175,102,104,120,195,145,98,204,96,235,67,186]},"announce":[],"urlList":[]}}